<svg width="652.8px" height="122px" xmlns="http://www.w3.org/2000/svg" viewBox="-76.40625 14 652.8125 122" style="background: rgba(0, 0, 0, 0)" preserveAspectRatio="xMidYMid"><defs><linearGradient id="editing-gradient-gradient" x1="0" x2="1" y1="0.5" y2="0.5" gradientUnits="objectBoundingBox"><stop offset="0" stop-color="#ff4500"></stop><stop offset="1" stop-color="#0076ff"></stop></linearGradient></defs><g><g transform="matrix(1.2,0,0,1.4,-29.7,136.9)"><path d="M 17.9 -37.3 L 4 -37.3 L 12.1 -79.5 L 26.2 -79.5 L 17.9 -37.3 Z M 73.7 -36 L 73.7 -36 L 73.7 -36 Q 65.9 -36 65.9 -42 L 65.9 -42 L 65.9 -42 Q 65.9 -44.6 67 -49.7 L 67 -49.7 L 67 -49.7 Q 68.2 -54.8 68.5 -56.9 L 68.5 -56.9 L 68.5 -56.9 Q 69.4 -61.5 69.4 -63 L 69.4 -63 L 69.4 -63 Q 69.4 -66.3 67 -66.3 L 67 -66.3 L 67 -66.3 Q 65.4 -66.3 63.9 -64.1 L 63.9 -64.1 L 63.9 -64.1 Q 62.3 -61.9 61.6 -57.4 L 61.6 -57.4 L 57.7 -37.3 L 45.2 -36 L 48.6 -53.4 L 48.6 -53.4 Q 49.2 -56.3 49.7 -59.6 L 49.7 -59.6 L 49.7 -59.6 Q 50.2 -62.8 50.2 -63.3 L 50.2 -63.3 L 50.2 -63.3 Q 50.2 -66.3 48.1 -66.3 L 48.1 -66.3 L 48.1 -66.3 Q 46.6 -66.3 45 -64.1 L 45 -64.1 L 45 -64.1 Q 43.4 -61.9 42.5 -57.4 L 42.5 -57.4 L 38.6 -37.3 L 26 -36 L 32.7 -69.9 L 43.1 -71.2 L 42 -64.7 L 42 -64.7 Q 43.7 -68.2 46.8 -69.7 L 46.8 -69.7 L 46.8 -69.7 Q 49.9 -71.2 54.7 -71.2 L 54.7 -71.2 L 54.7 -71.2 Q 57.4 -71.2 59.2 -69.9 L 59.2 -69.9 L 59.2 -69.9 Q 61 -68.5 61.6 -66.3 L 61.6 -66.3 L 61.6 -66.3 Q 62.7 -68.6 65.4 -69.9 L 65.4 -69.9 L 65.4 -69.9 Q 68.2 -71.2 71.6 -71.2 L 71.6 -71.2 L 71.6 -71.2 Q 75.1 -71.2 76.8 -70.5 L 76.8 -70.5 L 76.8 -70.5 Q 78.5 -69.7 79.5 -68.5 L 79.5 -68.5 L 79.5 -68.5 Q 81.2 -66.3 81.2 -62.2 L 81.2 -62.2 L 81.2 -62.2 Q 81.2 -58.1 79.5 -49.8 L 79.5 -49.8 L 79.5 -49.8 Q 78.6 -45.7 78.6 -44.2 L 78.6 -44.2 L 78.6 -44.2 Q 78.6 -42.7 79.5 -41.8 L 79.5 -41.8 L 79.5 -41.8 Q 80.3 -40.9 81.6 -40.7 L 81.6 -40.7 L 81.6 -40.7 Q 81 -38.6 78.8 -37.3 L 78.8 -37.3 L 78.8 -37.3 Q 76.5 -36 73.7 -36 Z M 89.3 -39.2 L 89.3 -39.2 L 89.3 -39.2 Q 87.8 -40.9 87.1 -43.5 L 87.1 -43.5 L 87.1 -43.5 Q 86.5 -46.1 86.5 -50.4 L 86.5 -50.4 L 86.5 -50.4 Q 86.5 -54.7 87.9 -58.6 L 87.9 -58.6 L 87.9 -58.6 Q 89.4 -62.5 92.1 -65.3 L 92.1 -65.3 L 92.1 -65.3 Q 97.6 -71.2 106.7 -71.2 L 106.7 -71.2 L 106.7 -71.2 Q 110 -71.2 112.3 -70.1 L 112.3 -70.1 L 123.3 -71.2 L 118.5 -46.2 L 118.5 -46.2 Q 118.3 -45.5 118.3 -44.1 L 118.3 -44.1 L 118.3 -44.1 Q 118.3 -42.7 119.2 -41.8 L 119.2 -41.8 L 119.2 -41.8 Q 120.1 -40.9 121.3 -40.7 L 121.3 -40.7 L 121.3 -40.7 Q 120.7 -38.6 118.4 -37.3 L 118.4 -37.3 L 118.4 -37.3 Q 116 -36 113.4 -36 L 113.4 -36 L 113.4 -36 Q 110.8 -36 109 -37 L 109 -37 L 109 -37 Q 107.3 -38 106.8 -39.7 L 106.8 -39.7 L 106.8 -39.7 Q 105.7 -38.1 103.6 -37 L 103.6 -37 L 103.6 -37 Q 101.4 -36 98.5 -36 L 98.5 -36 L 98.5 -36 Q 95.6 -36 93.2 -36.8 L 93.2 -36.8 L 93.2 -36.8 Q 90.8 -37.5 89.3 -39.2 Z M 102.8 -65.2 L 102.8 -65.2 L 102.8 -65.2 Q 102.1 -64 101.4 -62.1 L 101.4 -62.1 L 101.4 -62.1 Q 100.8 -60.1 99.7 -54.9 L 99.7 -54.9 L 99.7 -54.9 Q 98.7 -49.7 98.7 -46 L 98.7 -46 L 98.7 -46 Q 98.7 -42.3 99.3 -41.2 L 99.3 -41.2 L 99.3 -41.2 Q 99.8 -40.1 100.9 -40.1 L 100.9 -40.1 L 100.9 -40.1 Q 102.9 -40.1 104.4 -42.1 L 104.4 -42.1 L 104.4 -42.1 Q 105.9 -44 106.5 -47.5 L 106.5 -47.5 L 109.9 -66.2 L 109.9 -66.2 Q 108.5 -67.4 107 -67.4 L 107 -67.4 L 107 -67.4 Q 105.4 -67.4 104.5 -66.9 L 104.5 -66.9 L 104.5 -66.9 Q 103.6 -66.3 102.8 -65.2 Z M 131 -64 L 131 -64 L 131 -64 Q 133.2 -67.1 136.5 -69.2 L 136.5 -69.2 L 136.5 -69.2 Q 139.8 -71.2 143.8 -71.2 L 143.8 -71.2 L 143.8 -71.2 Q 147.8 -71.2 149.8 -69.9 L 149.8 -69.9 L 162.3 -71.2 L 158 -46.6 L 158 -46.6 Q 155.7 -34.1 151 -29.2 L 151 -29.2 L 151 -29.2 Q 146.4 -24.5 137.6 -24.5 L 137.6 -24.5 L 137.6 -24.5 Q 130.9 -24.5 127 -26.6 L 127 -26.6 L 127 -26.6 Q 123.2 -28.7 123.2 -32.2 L 123.2 -32.2 L 123.2 -32.2 Q 123.2 -34.9 125.2 -36.4 L 125.2 -36.4 L 125.2 -36.4 Q 127.2 -37.9 130.2 -37.9 L 130.2 -37.9 L 130.2 -37.9 Q 132.9 -37.9 135 -36.6 L 135 -36.6 L 135 -36.6 Q 136.2 -36 136.8 -35.1 L 136.8 -35.1 L 136.8 -35.1 Q 135.3 -33.8 135.3 -31.7 L 135.3 -31.7 L 135.3 -31.7 Q 135.3 -29 137.9 -29 L 137.9 -29 L 137.9 -29 Q 142.1 -29 144.6 -39.1 L 144.6 -39.1 L 144.6 -39.1 Q 145.3 -41.8 145.9 -44.6 L 145.9 -44.6 L 145.9 -44.6 Q 143 -41.1 136.4 -41.1 L 136.4 -41.1 L 136.4 -41.1 Q 131.9 -41.1 129.3 -43.2 L 129.3 -43.2 L 129.3 -43.2 Q 126.7 -45.4 126.7 -50.5 L 126.7 -50.5 L 126.7 -50.5 Q 126.7 -53.7 127.7 -57.3 L 127.7 -57.3 L 127.7 -57.3 Q 128.8 -61 131 -64 Z M 139.3 -50.3 L 139.3 -50.3 L 139.3 -50.3 Q 139.3 -46 141.6 -46 L 141.6 -46 L 141.6 -46 Q 143.1 -46 144.6 -47.7 L 144.6 -47.7 L 144.6 -47.7 Q 145.7 -49 146.2 -51 L 146.2 -51 L 149.4 -67.4 L 149.4 -67.4 Q 149.1 -67.5 148.8 -67.6 L 148.8 -67.6 L 148.8 -67.6 Q 148.2 -67.9 147.3 -67.9 L 147.3 -67.9 L 147.3 -67.9 Q 143.4 -67.9 141.1 -61.5 L 141.1 -61.5 L 141.1 -61.5 Q 139.3 -56.5 139.3 -50.3 Z M 190.7 -48.1 L 190.7 -48.1 L 190.7 -48.1 Q 192.3 -47 192.3 -44.6 L 192.3 -44.6 L 192.3 -44.6 Q 192.3 -42.2 191.1 -40.7 L 191.1 -40.7 L 191.1 -40.7 Q 189.9 -39.1 187.9 -38.1 L 187.9 -38.1 L 187.9 -38.1 Q 183.8 -36 179.4 -36 L 179.4 -36 L 179.4 -36 Q 175 -36 172.4 -37 L 172.4 -37 L 172.4 -37 Q 169.8 -37.9 168.1 -39.7 L 168.1 -39.7 L 168.1 -39.7 Q 164.7 -43.1 164.7 -49.3 L 164.7 -49.3 L 164.7 -49.3 Q 164.7 -59 169.9 -64.9 L 169.9 -64.9 L 169.9 -64.9 Q 175.6 -71.2 185.3 -71.2 L 185.3 -71.2 L 185.3 -71.2 Q 191.4 -71.2 194.4 -68.6 L 194.4 -68.6 L 194.4 -68.6 Q 196.7 -66.7 196.7 -63.6 L 196.7 -63.6 L 196.7 -63.6 Q 196.7 -52.3 177.2 -52.3 L 177.2 -52.3 L 177.2 -52.3 Q 177 -50.7 177 -49.3 L 177 -49.3 L 177 -49.3 Q 177 -46.3 178.3 -45.2 L 178.3 -45.2 L 178.3 -45.2 Q 179.6 -44.1 182 -44.1 L 182 -44.1 L 182 -44.1 Q 184.4 -44.1 187 -45.2 L 187 -45.2 L 187 -45.2 Q 189.6 -46.3 190.7 -48.1 Z M 177.7 -55.1 L 177.7 -55.1 L 177.7 -55.1 Q 182.2 -55.1 184.8 -57.9 L 184.8 -57.9 L 184.8 -57.9 Q 187.5 -60.6 187.5 -64.9 L 187.5 -64.9 L 187.5 -64.9 Q 187.5 -66.3 186.9 -67.1 L 186.9 -67.1 L 186.9 -67.1 Q 186.4 -67.9 185.3 -67.9 L 185.3 -67.9 L 185.3 -67.9 Q 184.2 -67.9 183.3 -67.5 L 183.3 -67.5 L 183.3 -67.5 Q 182.3 -67.1 181.4 -65.7 L 181.4 -65.7 L 181.4 -65.7 Q 179 -62.5 177.7 -55.1 Z M 218 -59.7 L 218 -59.7 L 218 -59.7 Q 218.9 -62.1 218.9 -64.2 L 218.9 -64.2 L 218.9 -64.2 Q 218.9 -67.9 215.8 -67.9 L 215.8 -67.9 L 215.8 -67.9 Q 214.2 -67.9 212.9 -66.5 L 212.9 -66.5 L 212.9 -66.5 Q 211.6 -65.1 211.6 -63.3 L 211.6 -63.3 L 211.6 -63.3 Q 211.6 -62 212.6 -61 L 212.6 -61 L 212.6 -61 Q 214.1 -59.6 217.9 -57.3 L 217.9 -57.3 L 217.9 -57.3 Q 221.6 -54.9 223.1 -53.1 L 223.1 -53.1 L 223.1 -53.1 Q 224.5 -51.2 224.5 -48.6 L 224.5 -48.6 L 224.5 -48.6 Q 224.5 -46 223.3 -43.6 L 223.3 -43.6 L 223.3 -43.6 Q 222 -41.3 219.8 -39.6 L 219.8 -39.6 L 219.8 -39.6 Q 215 -36 207.3 -36 L 207.3 -36 L 207.3 -36 Q 203.1 -36 199.9 -38.2 L 199.9 -38.2 L 199.9 -38.2 Q 196.7 -40.3 196.7 -42.8 L 196.7 -42.8 L 196.7 -42.8 Q 196.7 -45.3 198.6 -46.8 L 198.6 -46.8 L 198.6 -46.8 Q 200.4 -48.2 203.1 -48.2 L 203.1 -48.2 L 203.1 -48.2 Q 205.8 -48.2 207.4 -47.2 L 207.4 -47.2 L 207.4 -47.2 Q 206.6 -45.1 206.6 -43.7 L 206.6 -43.7 L 206.6 -43.7 Q 206.6 -39.5 210.2 -39.5 L 210.2 -39.5 L 210.2 -39.5 Q 211.7 -39.5 212.7 -40.4 L 212.7 -40.4 L 212.7 -40.4 Q 213.8 -41.4 213.8 -43 L 213.8 -43 L 213.8 -43 Q 213.8 -46.3 208.3 -49.8 L 208.3 -49.8 L 208.3 -49.8 Q 203.8 -52.7 202.8 -53.9 L 202.8 -53.9 L 202.8 -53.9 Q 201 -55.9 201 -58.5 L 201 -58.5 L 201 -58.5 Q 201 -61 202.2 -63.5 L 202.2 -63.5 L 202.2 -63.5 Q 203.5 -65.9 205.7 -67.6 L 205.7 -67.6 L 205.7 -67.6 Q 210.4 -71.2 218.5 -71.2 L 218.5 -71.2 L 218.5 -71.2 Q 222.7 -71.2 225.1 -69.5 L 225.1 -69.5 L 225.1 -69.5 Q 227.6 -67.9 227.6 -65.1 L 227.6 -65.1 L 227.6 -65.1 Q 227.6 -62.2 225.9 -60.6 L 225.9 -60.6 L 225.9 -60.6 Q 224.2 -59 221.1 -59 L 221.1 -59 L 221.1 -59 Q 219 -59 218 -59.7 Z M 247.7 -64 L 247.7 -64 L 247.7 -64 Q 249.9 -67.1 253.2 -69.2 L 253.2 -69.2 L 253.2 -69.2 Q 256.4 -71.2 260.5 -71.2 L 260.5 -71.2 L 260.5 -71.2 Q 264.5 -71.2 266.4 -69.9 L 266.4 -69.9 L 279 -71.2 L 274.6 -46.6 L 274.6 -46.6 Q 272.4 -34.1 267.6 -29.2 L 267.6 -29.2 L 267.6 -29.2 Q 263.1 -24.5 254.3 -24.5 L 254.3 -24.5 L 254.3 -24.5 Q 247.6 -24.5 243.7 -26.6 L 243.7 -26.6 L 243.7 -26.6 Q 239.9 -28.7 239.9 -32.2 L 239.9 -32.2 L 239.9 -32.2 Q 239.9 -34.9 241.9 -36.4 L 241.9 -36.4 L 241.9 -36.4 Q 243.8 -37.9 246.9 -37.9 L 246.9 -37.9 L 246.9 -37.9 Q 249.6 -37.9 251.6 -36.6 L 251.6 -36.6 L 251.6 -36.6 Q 252.9 -36 253.4 -35.1 L 253.4 -35.1 L 253.4 -35.1 Q 252 -33.8 252 -31.7 L 252 -31.7 L 252 -31.7 Q 252 -29 254.5 -29 L 254.5 -29 L 254.5 -29 Q 258.8 -29 261.2 -39.1 L 261.2 -39.1 L 261.2 -39.1 Q 262 -41.8 262.5 -44.6 L 262.5 -44.6 L 262.5 -44.6 Q 259.6 -41.1 253.1 -41.1 L 253.1 -41.1 L 253.1 -41.1 Q 248.6 -41.1 246 -43.2 L 246 -43.2 L 246 -43.2 Q 243.3 -45.4 243.3 -50.5 L 243.3 -50.5 L 243.3 -50.5 Q 243.3 -53.7 244.4 -57.3 L 244.4 -57.3 L 244.4 -57.3 Q 245.5 -61 247.7 -64 Z M 256 -50.3 L 256 -50.3 L 256 -50.3 Q 256 -46 258.2 -46 L 258.2 -46 L 258.2 -46 Q 259.8 -46 261.2 -47.7 L 261.2 -47.7 L 261.2 -47.7 Q 262.4 -49 262.8 -51 L 262.8 -51 L 266.1 -67.4 L 266.1 -67.4 Q 265.8 -67.5 265.5 -67.6 L 265.5 -67.6 L 265.5 -67.6 Q 264.8 -67.9 264 -67.9 L 264 -67.9 L 264 -67.9 Q 260.1 -67.9 257.8 -61.5 L 257.8 -61.5 L 257.8 -61.5 Q 256 -56.5 256 -50.3 Z M 284.3 -39.2 L 284.3 -39.2 L 284.3 -39.2 Q 282.8 -40.9 282.1 -43.5 L 282.1 -43.5 L 282.1 -43.5 Q 281.4 -46.1 281.4 -50.4 L 281.4 -50.4 L 281.4 -50.4 Q 281.4 -54.7 282.9 -58.6 L 282.9 -58.6 L 282.9 -58.6 Q 284.4 -62.5 287 -65.3 L 287 -65.3 L 287 -65.3 Q 292.5 -71.2 301.6 -71.2 L 301.6 -71.2 L 301.6 -71.2 Q 304.9 -71.2 307.3 -70.1 L 307.3 -70.1 L 318.2 -71.2 L 313.5 -46.2 L 313.5 -46.2 Q 313.3 -45.5 313.3 -44.1 L 313.3 -44.1 L 313.3 -44.1 Q 313.3 -42.7 314.1 -41.8 L 314.1 -41.8 L 314.1 -41.8 Q 315 -40.9 316.3 -40.7 L 316.3 -40.7 L 316.3 -40.7 Q 315.6 -38.6 313.3 -37.3 L 313.3 -37.3 L 313.3 -37.3 Q 311 -36 308.4 -36 L 308.4 -36 L 308.4 -36 Q 305.7 -36 304 -37 L 304 -37 L 304 -37 Q 302.2 -38 301.7 -39.7 L 301.7 -39.7 L 301.7 -39.7 Q 300.7 -38.1 298.5 -37 L 298.5 -37 L 298.5 -37 Q 296.3 -36 293.4 -36 L 293.4 -36 L 293.4 -36 Q 290.5 -36 288.1 -36.8 L 288.1 -36.8 L 288.1 -36.8 Q 285.8 -37.5 284.3 -39.2 Z M 297.8 -65.2 L 297.8 -65.2 L 297.8 -65.2 Q 297 -64 296.4 -62.1 L 296.4 -62.1 L 296.4 -62.1 Q 295.7 -60.1 294.7 -54.9 L 294.7 -54.9 L 294.7 -54.9 Q 293.6 -49.7 293.6 -46 L 293.6 -46 L 293.6 -46 Q 293.6 -42.3 294.2 -41.2 L 294.2 -41.2 L 294.2 -41.2 Q 294.8 -40.1 295.8 -40.1 L 295.8 -40.1 L 295.8 -40.1 Q 297.9 -40.1 299.4 -42.1 L 299.4 -42.1 L 299.4 -42.1 Q 300.9 -44 301.4 -47.5 L 301.4 -47.5 L 304.8 -66.2 L 304.8 -66.2 Q 303.5 -67.4 301.9 -67.4 L 301.9 -67.4 L 301.9 -67.4 Q 300.4 -67.4 299.4 -66.9 L 299.4 -66.9 L 299.4 -66.9 Q 298.5 -66.3 297.8 -65.2 Z M 337 -40.8 L 337 -40.8 L 337 -40.8 Q 335 -36 328.6 -36 L 328.6 -36 L 328.6 -36 Q 325.4 -36 323.4 -38.2 L 323.4 -38.2 L 323.4 -38.2 Q 321.7 -40.1 321.7 -42.2 L 321.7 -42.2 L 321.7 -42.2 Q 321.7 -47 324 -57.5 L 324 -57.5 L 328.6 -82.1 L 341.6 -83.4 L 335.4 -51 L 335.4 -51 Q 334.3 -46.2 334.3 -44.6 L 334.3 -44.6 L 334.3 -44.6 Q 334.3 -40.9 337 -40.8 Z M 357.7 -40.8 L 357.7 -40.8 L 357.7 -40.8 Q 355.7 -36 349.4 -36 L 349.4 -36 L 349.4 -36 Q 346.2 -36 344.1 -38.2 L 344.1 -38.2 L 344.1 -38.2 Q 342.5 -40.1 342.5 -42.2 L 342.5 -42.2 L 342.5 -42.2 Q 342.5 -47 344.7 -57.5 L 344.7 -57.5 L 349.4 -82.1 L 362.4 -83.4 L 356.2 -51 L 356.2 -51 Q 355.1 -46.2 355.1 -44.6 L 355.1 -44.6 L 355.1 -44.6 Q 355.1 -40.9 357.7 -40.8 Z M 389.1 -48.1 L 389.1 -48.1 L 389.1 -48.1 Q 390.7 -47 390.7 -44.6 L 390.7 -44.6 L 390.7 -44.6 Q 390.7 -42.2 389.4 -40.7 L 389.4 -40.7 L 389.4 -40.7 Q 388.2 -39.1 386.2 -38.1 L 386.2 -38.1 L 386.2 -38.1 Q 382.1 -36 377.7 -36 L 377.7 -36 L 377.7 -36 Q 373.3 -36 370.7 -37 L 370.7 -37 L 370.7 -37 Q 368.1 -37.9 366.4 -39.7 L 366.4 -39.7 L 366.4 -39.7 Q 363 -43.1 363 -49.3 L 363 -49.3 L 363 -49.3 Q 363 -59 368.3 -64.9 L 368.3 -64.9 L 368.3 -64.9 Q 373.9 -71.2 383.7 -71.2 L 383.7 -71.2 L 383.7 -71.2 Q 389.8 -71.2 392.8 -68.6 L 392.8 -68.6 L 392.8 -68.6 Q 395 -66.7 395 -63.6 L 395 -63.6 L 395 -63.6 Q 395 -52.3 375.6 -52.3 L 375.6 -52.3 L 375.6 -52.3 Q 375.3 -50.7 375.3 -49.3 L 375.3 -49.3 L 375.3 -49.3 Q 375.3 -46.3 376.6 -45.2 L 376.6 -45.2 L 376.6 -45.2 Q 377.9 -44.1 380.4 -44.1 L 380.4 -44.1 L 380.4 -44.1 Q 382.8 -44.1 385.4 -45.2 L 385.4 -45.2 L 385.4 -45.2 Q 388 -46.3 389.1 -48.1 Z M 376 -55.1 L 376 -55.1 L 376 -55.1 Q 380.5 -55.1 383.2 -57.9 L 383.2 -57.9 L 383.2 -57.9 Q 385.8 -60.6 385.8 -64.9 L 385.8 -64.9 L 385.8 -64.9 Q 385.8 -66.3 385.2 -67.1 L 385.2 -67.1 L 385.2 -67.1 Q 384.7 -67.9 383.6 -67.9 L 383.6 -67.9 L 383.6 -67.9 Q 382.5 -67.9 381.6 -67.5 L 381.6 -67.5 L 381.6 -67.5 Q 380.7 -67.1 379.7 -65.7 L 379.7 -65.7 L 379.7 -65.7 Q 377.3 -62.5 376 -55.1 Z M 417.2 -55.3 L 417.2 -55.3 L 417.2 -55.3 Q 419.5 -59.4 419.5 -63.5 L 419.5 -63.5 L 419.5 -63.5 Q 419.5 -66.3 417.5 -66.3 L 417.5 -66.3 L 417.5 -66.3 Q 416 -66.3 414.4 -63.7 L 414.4 -63.7 L 414.4 -63.7 Q 412.7 -61 412.2 -57.6 L 412.2 -57.6 L 408.9 -37.3 L 395.6 -36 L 402.2 -69.9 L 412.7 -71.2 L 411.6 -64.7 L 411.6 -64.7 Q 414.7 -71.2 421.8 -71.2 L 421.8 -71.2 L 421.8 -71.2 Q 425.5 -71.2 427.5 -69.3 L 427.5 -69.3 L 427.5 -69.3 Q 429.5 -67.4 429.5 -63.4 L 429.5 -63.4 L 429.5 -63.4 Q 429.5 -59.5 426.9 -57 L 426.9 -57 L 426.9 -57 Q 424.3 -54.5 419.9 -54.5 L 419.9 -54.5 L 419.9 -54.5 Q 418 -54.5 417.2 -55.3 Z M 450.9 -44.5 L 450.9 -44.5 L 450.9 -44.5 Q 447.6 -41.1 441.5 -41.1 L 441.5 -41.1 L 441.5 -41.1 Q 433.9 -41.1 432.3 -46.6 L 432.3 -46.6 L 432.3 -46.6 Q 431.7 -48.3 431.7 -50.1 L 431.7 -50.1 L 431.7 -50.1 Q 431.7 -52 432.1 -53.9 L 432.1 -53.9 L 435.1 -69.9 L 448.1 -71.2 L 444.6 -52.6 L 444.6 -52.6 Q 444.5 -51.7 444.3 -50.9 L 444.3 -50.9 L 444.3 -50.9 Q 444.1 -50 444.1 -49 L 444.1 -49 L 444.1 -49 Q 444.1 -48.1 444.4 -47.5 L 444.4 -47.5 L 444.4 -47.5 Q 444.7 -46.9 445.2 -46.5 L 445.2 -46.5 L 445.2 -46.5 Q 446 -46 447.3 -46 L 447.3 -46 L 447.3 -46 Q 448.7 -46 449.9 -47.7 L 449.9 -47.7 L 449.9 -47.7 Q 451.1 -49.3 451.6 -52.2 L 451.6 -52.2 L 455.2 -69.9 L 467.8 -71.2 L 463 -46.1 L 463 -46.1 Q 460.6 -33.8 455.7 -28.9 L 455.7 -28.9 L 455.7 -28.9 Q 453.2 -26.4 450 -25.4 L 450 -25.4 L 450 -25.4 Q 446.8 -24.4 442.6 -24.4 L 442.6 -24.4 L 442.6 -24.4 Q 435.9 -24.4 432.1 -26.5 L 432.1 -26.5 L 432.1 -26.5 Q 428.2 -28.6 428.2 -32.2 L 428.2 -32.2 L 428.2 -32.2 Q 428.2 -34.8 430.2 -36.3 L 430.2 -36.3 L 430.2 -36.3 Q 432.2 -37.8 435.3 -37.8 L 435.3 -37.8 L 435.3 -37.8 Q 438 -37.8 440 -36.6 L 440 -36.6 L 440 -36.6 Q 441.2 -35.9 441.8 -35 L 441.8 -35 L 441.8 -35 Q 440.3 -33.8 440.3 -31.7 L 440.3 -31.7 L 440.3 -31.7 Q 440.3 -28.8 442.9 -28.8 L 442.9 -28.8 L 442.9 -28.8 Q 447.1 -28.8 449.5 -38.6 L 449.5 -38.6 L 449.5 -38.6 Q 450.2 -41.4 450.9 -44.5 Z" fill="url(#editing-gradient-gradient)"></path></g></g><style>text {
  font-size: 64px;
  font-family: Arial Black;
  dominant-baseline: central;
  text-anchor: middle;
}</style></svg>